<svg width="45" height="45" viewBox="0 0 56 53" fill="none" xmlns="http://www.w3.org/2000/svg">
<path d="M56 0H0V53H56V0Z" fill="#1877F2"/>
<path d="M42 26.5C42 19.2125 35.7 13.25 28 13.25C20.3 13.25 14 19.2125 14 26.5C14 33.125 19.075 38.5906 25.725 39.5844V30.3094H22.225V26.5H25.725V23.5187C25.725 20.2062 27.825 18.3844 30.975 18.3844C32.55 18.3844 34.125 18.7156 34.125 18.7156V22.0281H32.375C30.625 22.0281 30.1 23.0219 30.1 24.0156V26.5H33.95L33.25 30.3094H29.925V39.75C36.925 38.7563 42 33.125 42 26.5Z" fill="white"/>
</svg>
