<svg width="45" height="45" viewBox="0 0 56 53" fill="none" xmlns="http://www.w3.org/2000/svg">
<path d="M56 0H0V53H56V0Z" fill="#F00073"/>
<path d="M28.0001 15.2373C31.8501 15.2373 32.3751 15.2373 33.9501 15.2373C35.3501 15.2373 36.0501 15.5686 36.5751 15.7342C37.2751 16.0654 37.8001 16.2311 38.3251 16.7279C38.8501 17.2248 39.2001 17.7217 39.3751 18.3842C39.5501 18.8811 39.7251 19.5436 39.9001 20.8686C39.9001 22.3592 39.9001 22.6904 39.9001 26.4998C39.9001 30.3092 39.9001 30.6404 39.9001 32.1311C39.9001 33.4561 39.5501 34.1186 39.3751 34.6154C39.0251 35.2779 38.8501 35.7748 38.3251 36.2717C37.8001 36.7686 37.2751 37.0998 36.5751 37.2654C36.0501 37.4311 35.3501 37.5967 33.9501 37.7623C32.3751 37.7623 32.0251 37.7623 28.0001 37.7623C23.9751 37.7623 23.6251 37.7623 22.0501 37.7623C20.6501 37.7623 19.9501 37.4311 19.4251 37.2654C18.7251 36.9342 18.2001 36.7686 17.6751 36.2717C17.1501 35.7748 16.8001 35.2779 16.6251 34.6154C16.4501 34.1186 16.2751 33.4561 16.1001 32.1311C16.1001 30.6404 16.1001 30.3092 16.1001 26.4998C16.1001 22.6904 16.1001 22.3592 16.1001 20.8686C16.1001 19.5436 16.4501 18.8811 16.6251 18.3842C16.9751 17.7217 17.1501 17.2248 17.6751 16.7279C18.2001 16.2311 18.7251 15.8998 19.4251 15.7342C19.9501 15.5686 20.6501 15.4029 22.0501 15.2373C23.6251 15.2373 24.1501 15.2373 28.0001 15.2373ZM28.0001 12.7529C23.9751 12.7529 23.6251 12.7529 22.0501 12.7529C20.4751 12.7529 19.4251 13.0842 18.5501 13.4154C17.6751 13.7467 16.8001 14.2436 15.9251 15.0717C15.0501 15.8998 14.7001 16.5623 14.1751 17.5561C13.8251 18.3842 13.6501 19.3779 13.4751 20.8686C13.4751 22.3592 13.4751 22.8561 13.4751 26.4998C13.4751 30.3092 13.4751 30.6404 13.4751 32.1311C13.4751 33.6217 13.8251 34.6154 14.1751 35.4436C14.5251 36.2717 15.0501 37.0998 15.9251 37.9279C16.8001 38.7561 17.5001 39.0873 18.5501 39.5842C19.4251 39.9154 20.4751 40.0811 22.0501 40.2467C23.6251 40.2467 24.1501 40.2467 28.0001 40.2467C31.8501 40.2467 32.3751 40.2467 33.9501 40.2467C35.5251 40.2467 36.5751 39.9154 37.4501 39.5842C38.3251 39.2529 39.2001 38.7561 40.0751 37.9279C40.9501 37.0998 41.3001 36.4373 41.8251 35.4436C42.1751 34.6154 42.3501 33.6217 42.5251 32.1311C42.5251 30.6404 42.5251 30.1436 42.5251 26.4998C42.5251 22.8561 42.5251 22.3592 42.5251 20.8686C42.5251 19.3779 42.1751 18.3842 41.8251 17.5561C41.4751 16.7279 40.9501 15.8998 40.0751 15.0717C39.2001 14.2436 38.5001 13.9123 37.4501 13.4154C36.5751 13.0842 35.5251 12.9186 33.9501 12.7529C32.3751 12.7529 32.0251 12.7529 28.0001 12.7529Z" fill="white"/>
<path d="M28.0001 19.3779C23.8001 19.3779 20.4751 22.5248 20.4751 26.4998C20.4751 30.4748 23.8001 33.6217 28.0001 33.6217C32.2001 33.6217 35.5251 30.4748 35.5251 26.4998C35.5251 22.5248 32.2001 19.3779 28.0001 19.3779ZM28.0001 31.1373C25.3751 31.1373 23.1001 29.1498 23.1001 26.4998C23.1001 24.0154 25.2001 21.8623 28.0001 21.8623C30.6251 21.8623 32.9001 23.8498 32.9001 26.4998C32.9001 28.9842 30.6251 31.1373 28.0001 31.1373Z" fill="white"/>
<path d="M35.7001 20.8686C36.6666 20.8686 37.4501 20.127 37.4501 19.2123C37.4501 18.2976 36.6666 17.5561 35.7001 17.5561C34.7336 17.5561 33.9501 18.2976 33.9501 19.2123C33.9501 20.127 34.7336 20.8686 35.7001 20.8686Z" fill="white"/>
</svg>
