<svg width="45" height="45" viewBox="0 0 56 53" fill="none" xmlns="http://www.w3.org/2000/svg">
<path d="M56 0H0V53H56V0Z" fill="#2867B2"/>
<path d="M20.3 39.75H14.35V22.0281H20.3V39.75ZM17.325 19.5438C15.4 19.5438 14 18.2187 14 16.3969C14 14.575 15.575 13.25 17.325 13.25C19.25 13.25 20.65 14.575 20.65 16.3969C20.65 18.2187 19.25 19.5438 17.325 19.5438ZM42 39.75H36.05V30.1438C36.05 27.3281 34.825 26.5 33.075 26.5C31.325 26.5 29.575 27.825 29.575 30.3094V39.75H23.625V22.0281H29.225V24.5125C29.75 23.3531 31.85 21.5312 34.825 21.5312C38.15 21.5312 41.65 23.3531 41.65 28.8187V39.75H42Z" fill="white"/>
</svg>
