<svg width="396" height="115" viewBox="0 0 396 115" fill="none" xmlns="http://www.w3.org/2000/svg">
<path d="M134.208 87.46L134.607 85.4795H138.118L137.711 87.46H134.208ZM141.926 89.9546L143.888 80.6743H146.528C147.667 80.6743 148.564 80.9727 149.22 81.5693C149.876 82.166 150.204 83.0378 150.204 84.1846C150.204 84.904 150.125 85.5641 149.969 86.165C149.816 86.766 149.592 87.3013 149.296 87.771C149 88.2407 148.636 88.6385 148.204 88.9644C147.777 89.286 147.288 89.5314 146.738 89.7007C146.188 89.87 145.58 89.9546 144.916 89.9546H141.926ZM144.853 87.8979H145.291C145.574 87.8979 145.839 87.8429 146.084 87.7329C146.334 87.6229 146.556 87.4642 146.75 87.2568C146.949 87.0452 147.119 86.7935 147.258 86.5015C147.402 86.2052 147.51 85.873 147.582 85.5049C147.658 85.1367 147.696 84.7389 147.696 84.3115C147.696 83.7826 147.582 83.3826 147.354 83.1118C147.125 82.8368 146.806 82.6992 146.395 82.6992H145.944L144.853 87.8979ZM153.193 90.0815C152.825 90.0815 152.485 89.9948 152.171 89.8213C151.862 89.6478 151.615 89.3621 151.429 88.9644C151.243 88.5623 151.149 88.0207 151.149 87.3394C151.149 86.9881 151.19 86.603 151.27 86.1841C151.355 85.7651 151.479 85.3483 151.645 84.9336C151.814 84.5146 152.025 84.1317 152.279 83.7847C152.533 83.4377 152.832 83.1605 153.174 82.9531C153.521 82.7415 153.913 82.6357 154.349 82.6357C154.624 82.6357 154.863 82.6781 155.066 82.7627C155.273 82.8473 155.453 82.9658 155.605 83.1182C155.762 83.2663 155.897 83.444 156.012 83.6514H156.062L156.399 82.7627H158.367L156.843 89.9546H154.882L154.945 89.1738H154.895C154.768 89.3516 154.626 89.5081 154.469 89.6436C154.313 89.779 154.131 89.8848 153.923 89.9609C153.72 90.0413 153.477 90.0815 153.193 90.0815ZM154.203 88.1074C154.389 88.1074 154.56 88.0228 154.717 87.8535C154.873 87.68 155.007 87.4578 155.117 87.187C155.231 86.9162 155.313 86.6263 155.364 86.3174C155.39 86.1862 155.409 86.055 155.421 85.9238C155.434 85.7884 155.44 85.6551 155.44 85.5239C155.44 85.2489 155.396 85.0288 155.307 84.8638C155.222 84.6945 155.093 84.6099 154.92 84.6099C154.785 84.6099 154.653 84.6606 154.526 84.7622C154.404 84.8595 154.289 84.995 154.184 85.1685C154.078 85.3377 153.985 85.5345 153.904 85.7588C153.828 85.9788 153.767 86.2116 153.72 86.457C153.678 86.7025 153.657 86.95 153.657 87.1997C153.657 87.4917 153.701 87.716 153.79 87.8726C153.883 88.0291 154.021 88.1074 154.203 88.1074ZM158.659 89.9546L160.176 82.7627H162.137L162.061 83.7656H162.112C162.268 83.4948 162.442 83.2769 162.632 83.1118C162.823 82.9468 163.036 82.8262 163.273 82.75C163.515 82.6738 163.788 82.6357 164.092 82.6357C164.541 82.6357 164.903 82.7288 165.178 82.915C165.457 83.1012 165.662 83.3488 165.793 83.6577C165.925 83.9666 165.99 84.3073 165.99 84.6797C165.99 84.9167 165.975 85.1621 165.946 85.416C165.916 85.6657 165.878 85.9048 165.832 86.1333L165.025 89.9546H162.569L163.388 86.0317C163.413 85.9217 163.438 85.7821 163.464 85.6128C163.489 85.4393 163.502 85.2785 163.502 85.1304C163.502 84.9484 163.455 84.813 163.362 84.7241C163.269 84.631 163.157 84.5845 163.026 84.5845C162.865 84.5845 162.711 84.6522 162.562 84.7876C162.419 84.9188 162.285 85.1219 162.163 85.397C162.044 85.6678 161.94 86.0169 161.852 86.4443L161.115 89.9546H158.659ZM166.746 89.9546L168.263 82.7627H170.224L170.123 83.9497H170.173C170.343 83.6323 170.525 83.3784 170.719 83.188C170.914 82.9933 171.136 82.8537 171.386 82.769C171.635 82.6802 171.925 82.6357 172.255 82.6357C172.75 82.6357 173.131 82.75 173.398 82.9785C173.669 83.2028 173.859 83.5265 173.969 83.9497H174.02C174.202 83.6493 174.403 83.4038 174.623 83.2134C174.843 83.0187 175.084 82.8748 175.347 82.7817C175.609 82.6844 175.895 82.6357 176.204 82.6357C176.796 82.6357 177.247 82.8156 177.556 83.1753C177.869 83.535 178.025 84.0618 178.025 84.7559C178.025 84.9505 178.013 85.16 177.987 85.3843C177.966 85.6043 177.932 85.8286 177.886 86.0571L177.092 89.9546H174.636L175.455 85.9492C175.476 85.8646 175.495 85.7482 175.512 85.6001C175.533 85.452 175.543 85.2869 175.543 85.105C175.543 84.9357 175.503 84.8066 175.423 84.7178C175.342 84.6289 175.235 84.5845 175.099 84.5845C174.943 84.5845 174.801 84.6247 174.674 84.7051C174.551 84.7855 174.439 84.9082 174.337 85.0732C174.24 85.234 174.151 85.4351 174.071 85.6763C173.99 85.9132 173.918 86.1904 173.855 86.5078L173.15 89.9546H170.694L171.525 85.9492C171.547 85.8519 171.568 85.7271 171.589 85.5747C171.61 85.4181 171.621 85.2869 171.621 85.1812C171.621 84.9696 171.576 84.8172 171.487 84.7241C171.403 84.631 171.295 84.5845 171.164 84.5845C171.045 84.5845 170.929 84.6141 170.814 84.6733C170.704 84.7284 170.599 84.8257 170.497 84.9653C170.4 85.105 170.305 85.2975 170.211 85.543C170.123 85.7842 170.036 86.0889 169.951 86.457L169.202 89.9546H166.746ZM181.212 90.0815C180.844 90.0815 180.503 89.9948 180.19 89.8213C179.881 89.6478 179.633 89.3621 179.447 88.9644C179.261 88.5623 179.168 88.0207 179.168 87.3394C179.168 86.9881 179.208 86.603 179.289 86.1841C179.373 85.7651 179.498 85.3483 179.663 84.9336C179.832 84.5146 180.044 84.1317 180.298 83.7847C180.552 83.4377 180.85 83.1605 181.193 82.9531C181.54 82.7415 181.931 82.6357 182.367 82.6357C182.642 82.6357 182.881 82.6781 183.084 82.7627C183.292 82.8473 183.472 82.9658 183.624 83.1182C183.781 83.2663 183.916 83.444 184.03 83.6514H184.081L184.417 82.7627H186.385L184.862 89.9546H182.9L182.964 89.1738H182.913C182.786 89.3516 182.644 89.5081 182.488 89.6436C182.331 89.779 182.149 89.8848 181.942 89.9609C181.739 90.0413 181.495 90.0815 181.212 90.0815ZM182.221 88.1074C182.407 88.1074 182.579 88.0228 182.735 87.8535C182.892 87.68 183.025 87.4578 183.135 87.187C183.25 86.9162 183.332 86.6263 183.383 86.3174C183.408 86.1862 183.427 86.055 183.44 85.9238C183.453 85.7884 183.459 85.6551 183.459 85.5239C183.459 85.2489 183.415 85.0288 183.326 84.8638C183.241 84.6945 183.112 84.6099 182.938 84.6099C182.803 84.6099 182.672 84.6606 182.545 84.7622C182.422 84.8595 182.308 84.995 182.202 85.1685C182.096 85.3377 182.003 85.5345 181.923 85.7588C181.847 85.9788 181.785 86.2116 181.739 86.457C181.696 86.7025 181.675 86.95 181.675 87.1997C181.675 87.4917 181.72 87.716 181.809 87.8726C181.902 88.0291 182.039 88.1074 182.221 88.1074ZM186.677 89.9546L188.194 82.7627H190.156L190.042 83.9624H190.092C190.291 83.6239 190.494 83.3594 190.702 83.1689C190.909 82.9743 191.138 82.8368 191.387 82.7563C191.641 82.6759 191.929 82.6357 192.25 82.6357C192.344 82.6357 192.441 82.6421 192.542 82.6548C192.648 82.6632 192.72 82.6738 192.758 82.6865L192.225 85.1177C192.132 85.0796 192.018 85.0479 191.882 85.0225C191.747 84.9928 191.601 84.978 191.444 84.978C191.254 84.978 191.074 85.0098 190.905 85.0732C190.74 85.1325 190.587 85.2319 190.448 85.3716C190.312 85.507 190.19 85.6932 190.08 85.9302C189.974 86.1629 189.883 86.4507 189.807 86.7935L189.134 89.9546H186.677ZM192.365 89.9546L194.428 80.0776H196.884L196.002 84.2861C195.968 84.4427 195.926 84.6141 195.875 84.8003C195.824 84.9865 195.773 85.1621 195.723 85.3271C195.676 85.488 195.634 85.617 195.596 85.7144H195.653L198.135 82.7627H200.94L197.824 86.0127L199.563 89.9546H196.783L195.9 87.4727L195.259 87.8091L194.821 89.9546H192.365ZM202.699 90.0815C202.221 90.0815 201.793 90.0477 201.417 89.98C201.044 89.9123 200.718 89.8128 200.439 89.6816V87.7075C200.828 87.9191 201.19 88.0672 201.524 88.1519C201.859 88.2365 202.197 88.2788 202.54 88.2788C202.642 88.2788 202.76 88.2703 202.896 88.2534C203.031 88.2323 203.149 88.1899 203.251 88.1265C203.353 88.063 203.403 87.9657 203.403 87.8345C203.403 87.7371 203.38 87.6504 203.333 87.5742C203.291 87.4938 203.2 87.4049 203.061 87.3076C202.921 87.2061 202.705 87.0749 202.413 86.9141C202.117 86.749 201.874 86.5692 201.683 86.3745C201.493 86.1799 201.351 85.964 201.258 85.7271C201.169 85.4858 201.125 85.2129 201.125 84.9082C201.125 84.4554 201.23 84.0597 201.442 83.7212C201.653 83.3784 201.977 83.1118 202.413 82.9214C202.853 82.731 203.408 82.6357 204.076 82.6357C204.546 82.6357 204.978 82.6929 205.371 82.8071C205.765 82.9172 206.143 83.0843 206.507 83.3086L205.739 84.9082C205.502 84.7516 205.231 84.6141 204.927 84.4956C204.626 84.3729 204.351 84.3115 204.102 84.3115C203.953 84.3115 203.835 84.3475 203.746 84.4194C203.661 84.4914 203.619 84.5993 203.619 84.7432C203.619 84.8236 203.647 84.8976 203.702 84.9653C203.761 85.033 203.854 85.1029 203.981 85.1748C204.108 85.2425 204.271 85.3271 204.47 85.4287C204.796 85.5895 205.062 85.7715 205.27 85.9746C205.481 86.1777 205.638 86.402 205.739 86.6475C205.845 86.8929 205.898 87.1637 205.898 87.46C205.898 88.0524 205.767 88.5433 205.504 88.9326C205.242 89.3177 204.872 89.6055 204.394 89.7959C203.915 89.9863 203.35 90.0815 202.699 90.0815ZM212.601 90.0815C212.123 90.0815 211.695 90.0477 211.319 89.98C210.946 89.9123 210.621 89.8128 210.341 89.6816V87.7075C210.731 87.9191 211.092 88.0672 211.427 88.1519C211.761 88.2365 212.1 88.2788 212.442 88.2788C212.544 88.2788 212.662 88.2703 212.798 88.2534C212.933 88.2323 213.052 88.1899 213.153 88.1265C213.255 88.063 213.306 87.9657 213.306 87.8345C213.306 87.7371 213.282 87.6504 213.236 87.5742C213.194 87.4938 213.103 87.4049 212.963 87.3076C212.823 87.2061 212.607 87.0749 212.315 86.9141C212.019 86.749 211.776 86.5692 211.585 86.3745C211.395 86.1799 211.253 85.964 211.16 85.7271C211.071 85.4858 211.027 85.2129 211.027 84.9082C211.027 84.4554 211.133 84.0597 211.344 83.7212C211.556 83.3784 211.88 83.1118 212.315 82.9214C212.756 82.731 213.31 82.6357 213.979 82.6357C214.448 82.6357 214.88 82.6929 215.273 82.8071C215.667 82.9172 216.046 83.0843 216.41 83.3086L215.642 84.9082C215.405 84.7516 215.134 84.6141 214.829 84.4956C214.529 84.3729 214.254 84.3115 214.004 84.3115C213.856 84.3115 213.737 84.3475 213.648 84.4194C213.564 84.4914 213.521 84.5993 213.521 84.7432C213.521 84.8236 213.549 84.8976 213.604 84.9653C213.663 85.033 213.756 85.1029 213.883 85.1748C214.01 85.2425 214.173 85.3271 214.372 85.4287C214.698 85.5895 214.965 85.7715 215.172 85.9746C215.383 86.1777 215.54 86.402 215.642 86.6475C215.747 86.8929 215.8 87.1637 215.8 87.46C215.8 88.0524 215.669 88.5433 215.407 88.9326C215.144 89.3177 214.774 89.6055 214.296 89.7959C213.818 89.9863 213.253 90.0815 212.601 90.0815ZM219.272 90.0815C218.646 90.0815 218.17 89.9482 217.844 89.6816C217.523 89.4108 217.362 88.9686 217.362 88.355C217.362 88.1815 217.377 87.9826 217.406 87.7583C217.44 87.534 217.476 87.3351 217.514 87.1616L218.047 84.6099H217.07L217.33 83.4038L218.714 82.8452L219.583 81.3218H221.221L220.91 82.7627H222.738L222.338 84.6099H220.504L219.971 87.041C219.945 87.1637 219.922 87.2886 219.901 87.4155C219.88 87.5382 219.869 87.6356 219.869 87.7075C219.869 87.8514 219.905 87.9551 219.977 88.0186C220.053 88.0778 220.151 88.1074 220.269 88.1074C220.43 88.1074 220.612 88.0799 220.815 88.0249C221.018 87.9657 221.223 87.8937 221.431 87.8091V89.6562C221.164 89.7874 220.853 89.8911 220.498 89.9673C220.146 90.0435 219.738 90.0815 219.272 90.0815ZM223.836 90.6592L223.03 89.9673L223.741 89.1357C223.555 88.8988 223.409 88.6322 223.303 88.3359C223.197 88.0397 223.145 87.6991 223.145 87.314C223.145 86.8231 223.202 86.3491 223.316 85.8921C223.43 85.4308 223.599 85.0034 223.824 84.6099C224.052 84.2163 224.334 83.8714 224.668 83.5752C225.007 83.279 225.396 83.0483 225.836 82.8833C226.28 82.7183 226.778 82.6357 227.328 82.6357C227.649 82.6357 227.939 82.6696 228.197 82.7373C228.455 82.8008 228.694 82.8875 228.915 82.9976L229.581 82.2295L230.387 82.9214L229.721 83.7021C229.882 83.9222 230.008 84.174 230.102 84.4575C230.195 84.7368 230.241 85.0521 230.241 85.4033C230.241 85.8942 230.184 86.3703 230.07 86.8315C229.956 87.2886 229.786 87.7139 229.562 88.1074C229.338 88.501 229.058 88.8459 228.724 89.1421C228.39 89.4383 228.003 89.6689 227.562 89.834C227.127 89.999 226.638 90.0815 226.096 90.0815C225.8 90.0815 225.527 90.0519 225.277 89.9927C225.028 89.9377 224.797 89.8636 224.585 89.7705L223.836 90.6592ZM226.356 88.3042C226.505 88.3042 226.648 88.2788 226.788 88.228C226.928 88.173 227.059 88.0905 227.182 87.9805C227.304 87.8704 227.414 87.7287 227.512 87.5552C227.609 87.3817 227.692 87.1764 227.759 86.9395C227.827 86.6982 227.876 86.4211 227.905 86.1079C227.905 86.0614 227.907 86.0148 227.912 85.9683C227.916 85.9217 227.918 85.8773 227.918 85.835L225.899 88.2153C225.967 88.245 226.037 88.2682 226.109 88.2852C226.181 88.2979 226.263 88.3042 226.356 88.3042ZM225.461 87.0918L227.588 84.5718C227.52 84.5125 227.442 84.4681 227.353 84.4385C227.268 84.4046 227.173 84.3877 227.067 84.3877C226.915 84.3877 226.765 84.4237 226.617 84.4956C226.473 84.5675 226.335 84.6733 226.204 84.813C226.077 84.9484 225.961 85.1156 225.855 85.3145C225.753 85.5133 225.669 85.7419 225.601 86C225.538 86.2581 225.495 86.5417 225.474 86.8506C225.47 86.8887 225.466 86.9268 225.461 86.9648C225.461 87.0029 225.461 87.0452 225.461 87.0918ZM230.92 89.9546L232.438 82.7627H234.399L234.285 83.9624H234.335C234.534 83.6239 234.737 83.3594 234.945 83.1689C235.152 82.9743 235.381 82.8368 235.63 82.7563C235.884 82.6759 236.172 82.6357 236.494 82.6357C236.587 82.6357 236.684 82.6421 236.786 82.6548C236.891 82.6632 236.963 82.6738 237.001 82.6865L236.468 85.1177C236.375 85.0796 236.261 85.0479 236.125 85.0225C235.99 84.9928 235.844 84.978 235.688 84.978C235.497 84.978 235.317 85.0098 235.148 85.0732C234.983 85.1325 234.831 85.2319 234.691 85.3716C234.556 85.507 234.433 85.6932 234.323 85.9302C234.217 86.1629 234.126 86.4507 234.05 86.7935L233.377 89.9546H230.92ZM238.918 90.0815C238.44 90.0815 238.013 90.0477 237.636 89.98C237.264 89.9123 236.938 89.8128 236.659 89.6816V87.7075C237.048 87.9191 237.41 88.0672 237.744 88.1519C238.078 88.2365 238.417 88.2788 238.76 88.2788C238.861 88.2788 238.98 88.2703 239.115 88.2534C239.251 88.2323 239.369 88.1899 239.471 88.1265C239.572 88.063 239.623 87.9657 239.623 87.8345C239.623 87.7371 239.6 87.6504 239.553 87.5742C239.511 87.4938 239.42 87.4049 239.28 87.3076C239.141 87.2061 238.925 87.0749 238.633 86.9141C238.337 86.749 238.093 86.5692 237.903 86.3745C237.712 86.1799 237.571 85.964 237.478 85.7271C237.389 85.4858 237.344 85.2129 237.344 84.9082C237.344 84.4554 237.45 84.0597 237.662 83.7212C237.873 83.3784 238.197 83.1118 238.633 82.9214C239.073 82.731 239.627 82.6357 240.296 82.6357C240.766 82.6357 241.197 82.6929 241.591 82.8071C241.984 82.9172 242.363 83.0843 242.727 83.3086L241.959 84.9082C241.722 84.7516 241.451 84.6141 241.146 84.4956C240.846 84.3729 240.571 84.3115 240.321 84.3115C240.173 84.3115 240.055 84.3475 239.966 84.4194C239.881 84.4914 239.839 84.5993 239.839 84.7432C239.839 84.8236 239.866 84.8976 239.921 84.9653C239.981 85.033 240.074 85.1029 240.201 85.1748C240.328 85.2425 240.491 85.3271 240.689 85.4287C241.015 85.5895 241.282 85.7715 241.489 85.9746C241.701 86.1777 241.857 86.402 241.959 86.6475C242.065 86.8929 242.118 87.1637 242.118 87.46C242.118 88.0524 241.986 88.5433 241.724 88.9326C241.462 89.3177 241.091 89.6055 240.613 89.7959C240.135 89.9863 239.57 90.0815 238.918 90.0815ZM245.59 90.0815C244.964 90.0815 244.487 89.9482 244.162 89.6816C243.84 89.4108 243.679 88.9686 243.679 88.355C243.679 88.1815 243.694 87.9826 243.724 87.7583C243.757 87.534 243.793 87.3351 243.832 87.1616L244.365 84.6099H243.387L243.647 83.4038L245.031 82.8452L245.901 81.3218H247.539L247.228 82.7627H249.056L248.656 84.6099H246.821L246.288 87.041C246.263 87.1637 246.239 87.2886 246.218 87.4155C246.197 87.5382 246.187 87.6356 246.187 87.7075C246.187 87.8514 246.222 87.9551 246.294 88.0186C246.371 88.0778 246.468 88.1074 246.586 88.1074C246.747 88.1074 246.929 88.0799 247.132 88.0249C247.335 87.9657 247.541 87.8937 247.748 87.8091V89.6562C247.481 89.7874 247.17 89.8911 246.815 89.9673C246.464 90.0435 246.055 90.0815 245.59 90.0815ZM252.306 90.0815C251.701 90.0815 251.186 89.9673 250.763 89.7388C250.34 89.5103 250.016 89.1844 249.792 88.7612C249.572 88.3338 249.462 87.826 249.462 87.2378C249.462 86.6496 249.544 86.0804 249.709 85.5303C249.879 84.9801 250.133 84.4871 250.471 84.0513C250.814 83.6154 251.243 83.2705 251.76 83.0166C252.276 82.7627 252.883 82.6357 253.582 82.6357C254.39 82.6357 255.022 82.8177 255.479 83.1816C255.941 83.5456 256.171 84.0301 256.171 84.6353C256.171 85.033 256.095 85.3949 255.943 85.7207C255.791 86.0423 255.556 86.3195 255.238 86.5522C254.925 86.785 254.525 86.9648 254.039 87.0918C253.552 87.2145 252.974 87.2759 252.306 87.2759H251.931C251.931 87.2928 251.931 87.3097 251.931 87.3267C251.931 87.3394 251.931 87.3563 251.931 87.3774C251.931 87.6991 252.018 87.936 252.191 88.0884C252.365 88.2407 252.625 88.3169 252.972 88.3169C253.336 88.3169 253.681 88.2619 254.007 88.1519C254.333 88.0418 254.682 87.8895 255.054 87.6948V89.4341C254.669 89.6287 254.271 89.7853 253.861 89.9038C253.45 90.0223 252.932 90.0815 252.306 90.0815ZM252.179 85.7397H252.363C252.731 85.7397 253.023 85.6911 253.239 85.5938C253.455 85.4964 253.609 85.3737 253.702 85.2256C253.795 85.0775 253.842 84.9294 253.842 84.7812C253.842 84.6458 253.799 84.5316 253.715 84.4385C253.63 84.3454 253.495 84.2988 253.309 84.2988C253.118 84.2988 252.943 84.3729 252.782 84.521C252.621 84.6691 252.488 84.8553 252.382 85.0796C252.276 85.2996 252.208 85.5197 252.179 85.7397ZM262.291 90.0815C261.812 90.0815 261.385 90.0477 261.008 89.98C260.636 89.9123 260.31 89.8128 260.031 89.6816V87.7075C260.42 87.9191 260.782 88.0672 261.116 88.1519C261.451 88.2365 261.789 88.2788 262.132 88.2788C262.233 88.2788 262.352 88.2703 262.487 88.2534C262.623 88.2323 262.741 88.1899 262.843 88.1265C262.944 88.063 262.995 87.9657 262.995 87.8345C262.995 87.7371 262.972 87.6504 262.925 87.5742C262.883 87.4938 262.792 87.4049 262.652 87.3076C262.513 87.2061 262.297 87.0749 262.005 86.9141C261.709 86.749 261.465 86.5692 261.275 86.3745C261.084 86.1799 260.943 85.964 260.85 85.7271C260.761 85.4858 260.716 85.2129 260.716 84.9082C260.716 84.4554 260.822 84.0597 261.034 83.7212C261.245 83.3784 261.569 83.1118 262.005 82.9214C262.445 82.731 262.999 82.6357 263.668 82.6357C264.138 82.6357 264.569 82.6929 264.963 82.8071C265.356 82.9172 265.735 83.0843 266.099 83.3086L265.331 84.9082C265.094 84.7516 264.823 84.6141 264.519 84.4956C264.218 84.3729 263.943 84.3115 263.693 84.3115C263.545 84.3115 263.427 84.3475 263.338 84.4194C263.253 84.4914 263.211 84.5993 263.211 84.7432C263.211 84.8236 263.238 84.8976 263.293 84.9653C263.353 85.033 263.446 85.1029 263.573 85.1748C263.7 85.2425 263.863 85.3271 264.062 85.4287C264.387 85.5895 264.654 85.7715 264.861 85.9746C265.073 86.1777 265.229 86.402 265.331 86.6475C265.437 86.8929 265.49 87.1637 265.49 87.46C265.49 88.0524 265.359 88.5433 265.096 88.9326C264.834 89.3177 264.464 89.6055 263.985 89.7959C263.507 89.9863 262.942 90.0815 262.291 90.0815ZM268.962 90.0815C268.336 90.0815 267.86 89.9482 267.534 89.6816C267.212 89.4108 267.051 88.9686 267.051 88.355C267.051 88.1815 267.066 87.9826 267.096 87.7583C267.13 87.534 267.166 87.3351 267.204 87.1616L267.737 84.6099H266.759L267.02 83.4038L268.403 82.8452L269.273 81.3218H270.911L270.6 82.7627H272.428L272.028 84.6099H270.193L269.66 87.041C269.635 87.1637 269.611 87.2886 269.59 87.4155C269.569 87.5382 269.559 87.6356 269.559 87.7075C269.559 87.8514 269.595 87.9551 269.667 88.0186C269.743 88.0778 269.84 88.1074 269.958 88.1074C270.119 88.1074 270.301 88.0799 270.504 88.0249C270.708 87.9657 270.913 87.8937 271.12 87.8091V89.6562C270.854 89.7874 270.542 89.8911 270.187 89.9673C269.836 90.0435 269.427 90.0815 268.962 90.0815ZM274.878 90.0815C274.51 90.0815 274.169 89.9948 273.856 89.8213C273.547 89.6478 273.299 89.3621 273.113 88.9644C272.927 88.5623 272.834 88.0207 272.834 87.3394C272.834 86.9881 272.874 86.603 272.955 86.1841C273.039 85.7651 273.164 85.3483 273.329 84.9336C273.498 84.5146 273.71 84.1317 273.964 83.7847C274.218 83.4377 274.516 83.1605 274.859 82.9531C275.206 82.7415 275.597 82.6357 276.033 82.6357C276.308 82.6357 276.547 82.6781 276.75 82.7627C276.958 82.8473 277.138 82.9658 277.29 83.1182C277.447 83.2663 277.582 83.444 277.696 83.6514H277.747L278.083 82.7627H280.051L278.528 89.9546H276.566L276.63 89.1738H276.579C276.452 89.3516 276.31 89.5081 276.154 89.6436C275.997 89.779 275.815 89.8848 275.608 89.9609C275.405 90.0413 275.161 90.0815 274.878 90.0815ZM275.887 88.1074C276.073 88.1074 276.245 88.0228 276.401 87.8535C276.558 87.68 276.691 87.4578 276.801 87.187C276.916 86.9162 276.998 86.6263 277.049 86.3174C277.074 86.1862 277.093 86.055 277.106 85.9238C277.119 85.7884 277.125 85.6551 277.125 85.5239C277.125 85.2489 277.081 85.0288 276.992 84.8638C276.907 84.6945 276.778 84.6099 276.604 84.6099C276.469 84.6099 276.338 84.6606 276.211 84.7622C276.088 84.8595 275.974 84.995 275.868 85.1685C275.762 85.3377 275.669 85.5345 275.589 85.7588C275.513 85.9788 275.451 86.2116 275.405 86.457C275.362 86.7025 275.341 86.95 275.341 87.1997C275.341 87.4917 275.386 87.716 275.475 87.8726C275.568 88.0291 275.705 88.1074 275.887 88.1074ZM280.343 89.9546L281.86 82.7627H283.822L283.708 83.9624H283.758C283.957 83.6239 284.16 83.3594 284.368 83.1689C284.575 82.9743 284.804 82.8368 285.053 82.7563C285.307 82.6759 285.595 82.6357 285.917 82.6357C286.01 82.6357 286.107 82.6421 286.208 82.6548C286.314 82.6632 286.386 82.6738 286.424 82.6865L285.891 85.1177C285.798 85.0796 285.684 85.0479 285.548 85.0225C285.413 84.9928 285.267 84.978 285.11 84.978C284.92 84.978 284.74 85.0098 284.571 85.0732C284.406 85.1325 284.253 85.2319 284.114 85.3716C283.978 85.507 283.856 85.6932 283.746 85.9302C283.64 86.1629 283.549 86.4507 283.473 86.7935L282.8 89.9546H280.343ZM288.487 90.0815C287.861 90.0815 287.385 89.9482 287.059 89.6816C286.737 89.4108 286.577 88.9686 286.577 88.355C286.577 88.1815 286.591 87.9826 286.621 87.7583C286.655 87.534 286.691 87.3351 286.729 87.1616L287.262 84.6099H286.285L286.545 83.4038L287.929 82.8452L288.798 81.3218H290.436L290.125 82.7627H291.953L291.553 84.6099H289.719L289.186 87.041C289.16 87.1637 289.137 87.2886 289.116 87.4155C289.095 87.5382 289.084 87.6356 289.084 87.7075C289.084 87.8514 289.12 87.9551 289.192 88.0186C289.268 88.0778 289.365 88.1074 289.484 88.1074C289.645 88.1074 289.827 88.0799 290.03 88.0249C290.233 87.9657 290.438 87.8937 290.646 87.8091V89.6562C290.379 89.7874 290.068 89.8911 289.712 89.9673C289.361 90.0435 288.953 90.0815 288.487 90.0815ZM294.333 90.0815C293.889 90.0815 293.527 89.9884 293.248 89.8022C292.969 89.616 292.764 89.3685 292.632 89.0596C292.501 88.7507 292.436 88.4121 292.436 88.0439C292.436 87.8027 292.45 87.5573 292.48 87.3076C292.51 87.0537 292.548 86.8146 292.594 86.5903L293.4 82.7627H295.857L295.038 86.6792C295.013 86.7892 294.985 86.9289 294.956 87.0981C294.93 87.2674 294.917 87.4261 294.917 87.5742C294.917 87.7562 294.964 87.8937 295.057 87.9868C295.154 88.0757 295.269 88.1201 295.4 88.1201C295.544 88.1201 295.688 88.0545 295.832 87.9233C295.98 87.7922 296.117 87.589 296.244 87.314C296.375 87.0389 296.485 86.6877 296.574 86.2603L297.311 82.7627H299.767L298.25 89.9546H296.282L296.365 88.9517H296.314C296.157 89.2183 295.984 89.4362 295.793 89.6055C295.603 89.7705 295.387 89.8911 295.146 89.9673C294.909 90.0435 294.638 90.0815 294.333 90.0815ZM299.393 93.0776L301.576 82.7627H303.538L303.461 83.5688H303.512C303.643 83.3657 303.789 83.1943 303.95 83.0547C304.111 82.915 304.291 82.8114 304.49 82.7437C304.689 82.6717 304.909 82.6357 305.15 82.6357C305.582 82.6357 305.956 82.7394 306.273 82.9468C306.591 83.1541 306.836 83.4567 307.01 83.8545C307.183 84.248 307.27 84.7262 307.27 85.2891C307.27 85.763 307.221 86.2327 307.124 86.6982C307.027 87.1595 306.887 87.5954 306.705 88.0059C306.523 88.4121 306.299 88.7718 306.032 89.085C305.77 89.3939 305.472 89.6372 305.137 89.8149C304.807 89.9927 304.443 90.0815 304.045 90.0815C303.83 90.0815 303.631 90.0435 303.449 89.9673C303.271 89.8911 303.11 89.7853 302.966 89.6499C302.822 89.5103 302.693 89.3473 302.579 89.1611H302.528C302.499 89.4997 302.461 89.8361 302.414 90.1704C302.372 90.509 302.291 90.9575 302.173 91.5161L301.849 93.0776H299.393ZM303.55 88.1074C303.686 88.1074 303.815 88.0588 303.938 87.9614C304.06 87.8599 304.17 87.7244 304.268 87.5552C304.369 87.3817 304.456 87.1849 304.528 86.9648C304.604 86.7448 304.661 86.512 304.699 86.2666C304.742 86.0169 304.763 85.7694 304.763 85.5239C304.763 85.2277 304.716 85.0013 304.623 84.8447C304.534 84.6882 304.399 84.6099 304.217 84.6099C304.09 84.6099 303.971 84.6479 303.861 84.7241C303.756 84.8003 303.656 84.904 303.563 85.0352C303.474 85.1663 303.394 85.3187 303.322 85.4922C303.25 85.6615 303.188 85.8434 303.138 86.0381C303.091 86.2327 303.055 86.4295 303.03 86.6284C303.004 86.8231 302.992 87.0135 302.992 87.1997C302.992 87.4705 303.04 87.6906 303.138 87.8599C303.239 88.0249 303.377 88.1074 303.55 88.1074ZM307.956 87.46L308.355 85.4795H311.866L311.459 87.46H307.956ZM312.234 89.9546L313.751 82.7627H315.712L315.611 83.9497H315.662C315.831 83.6323 316.013 83.3784 316.208 83.188C316.402 82.9933 316.624 82.8537 316.874 82.769C317.124 82.6802 317.414 82.6357 317.744 82.6357C318.239 82.6357 318.62 82.75 318.886 82.9785C319.157 83.2028 319.347 83.5265 319.458 83.9497H319.508C319.69 83.6493 319.891 83.4038 320.111 83.2134C320.331 83.0187 320.573 82.8748 320.835 82.7817C321.097 82.6844 321.383 82.6357 321.692 82.6357C322.284 82.6357 322.735 82.8156 323.044 83.1753C323.357 83.535 323.514 84.0618 323.514 84.7559C323.514 84.9505 323.501 85.16 323.476 85.3843C323.454 85.6043 323.421 85.8286 323.374 86.0571L322.581 89.9546H320.124L320.943 85.9492C320.964 85.8646 320.983 85.7482 321 85.6001C321.021 85.452 321.032 85.2869 321.032 85.105C321.032 84.9357 320.992 84.8066 320.911 84.7178C320.831 84.6289 320.723 84.5845 320.587 84.5845C320.431 84.5845 320.289 84.6247 320.162 84.7051C320.039 84.7855 319.927 84.9082 319.826 85.0732C319.728 85.234 319.639 85.4351 319.559 85.6763C319.479 85.9132 319.407 86.1904 319.343 86.5078L318.639 89.9546H316.182L317.014 85.9492C317.035 85.8519 317.056 85.7271 317.077 85.5747C317.098 85.4181 317.109 85.2869 317.109 85.1812C317.109 84.9696 317.064 84.8172 316.976 84.7241C316.891 84.631 316.783 84.5845 316.652 84.5845C316.533 84.5845 316.417 84.6141 316.303 84.6733C316.193 84.7284 316.087 84.8257 315.985 84.9653C315.888 85.105 315.793 85.2975 315.7 85.543C315.611 85.7842 315.524 86.0889 315.439 86.457L314.69 89.9546H312.234ZM327.5 90.0815C326.895 90.0815 326.381 89.9673 325.958 89.7388C325.534 89.5103 325.211 89.1844 324.986 88.7612C324.766 88.3338 324.656 87.826 324.656 87.2378C324.656 86.6496 324.739 86.0804 324.904 85.5303C325.073 84.9801 325.327 84.4871 325.666 84.0513C326.008 83.6154 326.438 83.2705 326.954 83.0166C327.47 82.7627 328.078 82.6357 328.776 82.6357C329.584 82.6357 330.217 82.8177 330.674 83.1816C331.135 83.5456 331.366 84.0301 331.366 84.6353C331.366 85.033 331.29 85.3949 331.137 85.7207C330.985 86.0423 330.75 86.3195 330.433 86.5522C330.119 86.785 329.72 86.9648 329.233 87.0918C328.746 87.2145 328.169 87.2759 327.5 87.2759H327.125C327.125 87.2928 327.125 87.3097 327.125 87.3267C327.125 87.3394 327.125 87.3563 327.125 87.3774C327.125 87.6991 327.212 87.936 327.386 88.0884C327.559 88.2407 327.819 88.3169 328.167 88.3169C328.53 88.3169 328.875 88.2619 329.201 88.1519C329.527 88.0418 329.876 87.8895 330.249 87.6948V89.4341C329.863 89.6287 329.466 89.7853 329.055 89.9038C328.645 90.0223 328.126 90.0815 327.5 90.0815ZM327.373 85.7397H327.557C327.925 85.7397 328.217 85.6911 328.433 85.5938C328.649 85.4964 328.803 85.3737 328.896 85.2256C328.99 85.0775 329.036 84.9294 329.036 84.7812C329.036 84.6458 328.994 84.5316 328.909 84.4385C328.825 84.3454 328.689 84.2988 328.503 84.2988C328.312 84.2988 328.137 84.3729 327.976 84.521C327.815 84.6691 327.682 84.8553 327.576 85.0796C327.47 85.2996 327.403 85.5197 327.373 85.7397ZM334.229 90.0815C333.86 90.0815 333.52 89.9948 333.207 89.8213C332.898 89.6478 332.65 89.3621 332.464 88.9644C332.278 88.5623 332.185 88.0207 332.185 87.3394C332.185 86.9881 332.225 86.603 332.305 86.1841C332.386 85.7651 332.508 85.3483 332.673 84.9336C332.843 84.5146 333.054 84.1317 333.308 83.7847C333.562 83.4377 333.86 83.1605 334.203 82.9531C334.546 82.7415 334.935 82.6357 335.371 82.6357C335.633 82.6357 335.851 82.6759 336.025 82.7563C336.198 82.8325 336.351 82.9425 336.482 83.0864C336.617 83.2303 336.749 83.4017 336.875 83.6006H336.926C336.926 83.5456 336.931 83.4292 336.939 83.2515C336.952 83.0695 336.971 82.8643 336.996 82.6357C337.021 82.403 337.055 82.1872 337.098 81.9883L337.491 80.0776H339.973L337.878 89.9546H335.917L335.98 89.1738H335.93C335.811 89.3389 335.678 89.4912 335.53 89.6309C335.382 89.7663 335.204 89.8742 334.997 89.9546C334.789 90.0392 334.533 90.0815 334.229 90.0815ZM335.238 88.1074C335.365 88.1074 335.483 88.0693 335.593 87.9932C335.703 87.9128 335.803 87.807 335.892 87.6758C335.985 87.5404 336.067 87.3859 336.139 87.2124C336.211 87.0389 336.272 86.8548 336.323 86.6602C336.374 86.4655 336.412 86.2708 336.438 86.0762C336.463 85.8815 336.476 85.6974 336.476 85.5239C336.476 85.2489 336.433 85.0288 336.349 84.8638C336.268 84.6945 336.141 84.6099 335.968 84.6099C335.832 84.6099 335.701 84.6606 335.574 84.7622C335.447 84.8595 335.331 84.995 335.225 85.1685C335.119 85.3377 335.026 85.5345 334.946 85.7588C334.865 85.9788 334.802 86.2116 334.755 86.457C334.713 86.7025 334.692 86.95 334.692 87.1997C334.692 87.4917 334.736 87.716 334.825 87.8726C334.918 88.0291 335.056 88.1074 335.238 88.1074ZM339.656 89.9546L341.173 82.7627H343.642L342.112 89.9546H339.656ZM342.684 82.0771C342.337 82.0771 342.047 82.0116 341.814 81.8804C341.585 81.745 341.471 81.5122 341.471 81.1821C341.471 80.8944 341.528 80.6532 341.643 80.4585C341.757 80.2596 341.92 80.1094 342.131 80.0078C342.347 79.9062 342.605 79.8555 342.906 79.8555C343.232 79.8555 343.513 79.9232 343.75 80.0586C343.991 80.1898 344.112 80.4204 344.112 80.7505C344.112 81.1483 343.995 81.4699 343.763 81.7153C343.53 81.9565 343.17 82.0771 342.684 82.0771ZM347.114 90.0815C346.509 90.0815 345.995 89.9673 345.572 89.7388C345.149 89.5103 344.825 89.1844 344.601 88.7612C344.381 88.3338 344.271 87.826 344.271 87.2378C344.271 86.6496 344.353 86.0804 344.518 85.5303C344.687 84.9801 344.941 84.4871 345.28 84.0513C345.623 83.6154 346.052 83.2705 346.568 83.0166C347.085 82.7627 347.692 82.6357 348.39 82.6357C349.198 82.6357 349.831 82.8177 350.288 83.1816C350.749 83.5456 350.98 84.0301 350.98 84.6353C350.98 85.033 350.904 85.3949 350.751 85.7207C350.599 86.0423 350.364 86.3195 350.047 86.5522C349.734 86.785 349.334 86.9648 348.847 87.0918C348.361 87.2145 347.783 87.2759 347.114 87.2759H346.74C346.74 87.2928 346.74 87.3097 346.74 87.3267C346.74 87.3394 346.74 87.3563 346.74 87.3774C346.74 87.6991 346.826 87.936 347 88.0884C347.174 88.2407 347.434 88.3169 347.781 88.3169C348.145 88.3169 348.49 88.2619 348.815 88.1519C349.141 88.0418 349.49 87.8895 349.863 87.6948V89.4341C349.478 89.6287 349.08 89.7853 348.669 89.9038C348.259 90.0223 347.741 90.0815 347.114 90.0815ZM346.987 85.7397H347.171C347.54 85.7397 347.832 85.6911 348.047 85.5938C348.263 85.4964 348.418 85.3737 348.511 85.2256C348.604 85.0775 348.65 84.9294 348.65 84.7812C348.65 84.6458 348.608 84.5316 348.523 84.4385C348.439 84.3454 348.303 84.2988 348.117 84.2988C347.927 84.2988 347.751 84.3729 347.59 84.521C347.43 84.6691 347.296 84.8553 347.19 85.0796C347.085 85.2996 347.017 85.5197 346.987 85.7397Z" fill="#CECFD3"/>
<path d="M58.9933 108.48C88.5851 108.48 112.574 84.8709 112.574 55.7481C112.574 26.6253 88.5851 3.0166 58.9933 3.0166C29.4015 3.0166 5.4126 26.6253 5.4126 55.7481C5.4126 84.8709 29.4015 108.48 58.9933 108.48Z" fill="#BF2026"/>
<path d="M53.7365 40.9838H43.9835C43.9835 40.9838 43.4805 42.8413 42.9033 45.1056L40.3803 54.9957C39.8031 57.2638 38.8633 57.26 38.294 54.9918L35.8177 45.1095C35.2484 42.8375 32.8384 40.98 30.4636 40.98H29.4692C27.0943 40.98 25.7528 42.7991 26.4899 45.0212L33.361 65.7531C34.098 67.9751 36.6445 69.7943 39.0193 69.7943H39.6862C42.061 69.7943 44.6075 67.9751 45.3445 65.7531L47.4425 59.4245" fill="white"/>
<path d="M67.4947 59.6433L65.4669 65.7531C64.7299 67.9751 62.1835 69.7943 59.8086 69.7943H59.1418C56.7669 69.7943 54.2205 67.9751 53.4834 65.7531L51.3854 59.4245L50.0596 55.3871L54.9926 40.98C55.0433 40.98 55.5307 42.8413 56.0767 45.1171L58.4515 54.9803C59.0014 57.2561 59.9217 57.26 60.4988 54.9918L62.9829 45.2515C63.56 42.9833 64.0241 41.0951 64.0085 41.0529C63.9968 41.0107 64.0046 40.98 64.028 40.98H73.8082" fill="white"/>
<path d="M52.4461 62.6598L50.0557 55.3871L54.9887 40.98C55.0394 40.98 57.0165 49.024 57.5624 51.2999" fill="url(#paint0_linear_176_7085)"/>
<path d="M75.0675 40.9839C75.1377 40.9839 75.6329 42.8491 76.1633 45.1287L78.4563 54.9765C78.9632 57.1603 79.9459 57.2907 80.6829 55.3488L83.2489 45.1134C83.8182 42.8414 86.2282 40.9839 88.6031 40.9839H89.5975C91.9723 40.9839 93.3138 42.803 92.5768 45.0251L91.4888 48.3103L84.0795 72.8339C83.2957 75.0406 82.5548 77.1284 82.3988 77.4584C80.0356 82.5052 77.4502 83.6642 73.1567 83.6642H71.9673C70.5517 83.3725 69.3975 81.6954 69.3975 79.9377C69.3975 78.1799 69.881 76.9864 70.3178 76.806C70.7545 76.6256 71.5578 76.6141 72.8486 76.5566C72.8486 76.5566 75.3405 76.4222 75.3912 73.2752C75.399 72.7111 74.2447 68.0098 73.4726 65.7992L73.4648 65.7723C73.4648 65.7723 73.4609 65.7608 73.457 65.757L71.4292 59.6472L70.037 55.7671" fill="white"/>
<path d="M72.954 64.2448L70.0371 55.7632L75.0676 40.98C75.1378 40.98 76.9472 48.4906 77.4776 50.7702" fill="url(#paint1_linear_176_7085)"/>
<g clip-path="url(#clip0_176_7085)">
<path d="M139.132 71.624H131.943L142.481 38.7231H135.059L137.118 32.293H159.151L157.092 38.7231H149.669L139.132 71.624Z" fill="white"/>
<path d="M168.165 71.624H150.688L163.292 32.293H180.769L178.747 38.6139H168.481L165.479 47.9788H174.999L172.962 54.3288H163.443L159.95 65.2229H170.216L168.165 71.624Z" fill="white"/>
<path d="M197.402 38.1262C195.335 38.1262 193.306 39.3569 191.329 41.8109C189.346 44.265 187.656 47.6877 186.253 52.0642C183.334 61.1742 184.216 65.7329 188.901 65.7329C190.952 65.7329 193.313 65.0702 195.984 63.7448L193.902 70.2551C191.601 71.5295 188.976 72.163 186.027 72.163C181.659 72.163 178.868 70.4007 177.654 66.8762C176.44 63.3516 176.854 58.3997 178.899 52.0133C180.943 45.6268 183.741 40.6531 187.302 37.0848C190.854 33.5166 194.784 31.7324 199.076 31.7324C200.494 31.7324 201.784 31.929 202.961 32.3223C204.137 32.7155 205.307 33.4073 206.476 34.3904L202.184 40.3327C201.565 39.7792 200.879 39.2695 200.125 38.8107C199.37 38.3519 198.465 38.1262 197.402 38.1262Z" fill="white"/>
<path d="M222.904 71.624H215.693L221.215 54.3798H211.695L206.174 71.624H198.963L211.552 32.293H218.763L213.755 47.9205H223.274L228.283 32.293H235.494L222.897 71.624H222.904Z" fill="white"/>
<path d="M250.874 60.781C249.697 64.4585 247.879 67.2767 245.42 69.2283C242.961 71.1799 240.012 72.163 236.565 72.163C233.118 72.163 230.53 71.4931 228.592 70.1459L230.907 62.9074C233.193 64.8299 235.546 65.7839 237.968 65.7839C239.348 65.7839 240.51 65.3979 241.453 64.626C242.395 63.8541 243.082 62.8054 243.512 61.4801C243.942 60.1547 243.897 58.975 243.414 57.89C242.931 56.8049 241.943 55.5961 240.464 54.2707C239.175 53.1056 238.277 51.9914 237.757 50.9209C237.244 49.8577 236.965 48.6562 236.919 47.3308C236.874 46.0055 237.138 44.4617 237.696 42.7067C238.775 39.335 240.555 36.6625 243.037 34.689C245.518 32.7155 248.309 31.7324 251.424 31.7324C254.54 31.7324 256.976 32.5772 259.179 34.2593L254.917 40.1215C254.23 39.619 253.484 39.1675 252.684 38.7743C251.885 38.381 250.949 38.1844 249.893 38.1844C248.724 38.1844 247.706 38.5777 246.823 39.3569C245.941 40.136 245.292 41.1992 244.862 42.5464C244.432 43.8936 244.44 45.0297 244.877 46.02C245.315 47.0031 246.265 48.1246 247.736 49.3844C249.712 51.103 250.912 52.8653 251.334 54.6567C251.756 56.4481 251.606 58.4944 250.866 60.7883L250.874 60.781Z" fill="white"/>
<path d="M270.531 71.624L271.481 61.6984H261.381L255.973 71.624H248.762L271.006 32.1255H280.789L277.765 71.6167H270.523L270.531 71.624ZM272.205 55.21L273.065 46.0636C273.118 45.5101 273.284 44.1119 273.571 41.8836C273.857 39.6553 274.069 38.1551 274.219 37.4051C273.495 38.9489 272.658 40.6456 271.715 42.5026C270.772 44.3595 268.494 48.5978 264.889 55.2172H272.205V55.21Z" fill="white"/>
<path d="M309.747 32.293H317.011L295.295 71.624H286.123L289.645 32.293H296.909L294.277 56.3168C294.08 58.3631 293.59 61.2906 292.813 65.1137C294.224 61.8659 295.634 58.9384 297.037 56.3168L309.747 32.293Z" fill="white"/>
<path d="M337.113 32.293H344.377L322.661 71.624H313.488L317.018 32.293H324.282L321.65 56.3168C321.454 58.3631 320.963 61.2906 320.186 65.1137C321.597 61.8659 323.008 58.9384 324.411 56.3168L337.113 32.293Z" fill="white"/>
<path d="M352.169 47.8112L362.314 32.2856H369.873L353.12 55.8507L348.073 71.6166H340.968L345.924 56.1493L344.392 32.2856H352.003L352.177 47.8112H352.169Z" fill="white"/>
</g>
<defs>
<linearGradient id="paint0_linear_176_7085" x1="56.9463" y1="52.977" x2="51.3249" y2="50.8967" gradientUnits="userSpaceOnUse">
<stop offset="0.4" stop-color="white"/>
<stop offset="1" stop-color="#B3B3B3"/>
</linearGradient>
<linearGradient id="paint1_linear_176_7085" x1="76.877" y1="53.6409" x2="71.1663" y2="51.5291" gradientUnits="userSpaceOnUse">
<stop offset="0.4" stop-color="white"/>
<stop offset="1" stop-color="#B3B3B3"/>
</linearGradient>
<clipPath id="clip0_176_7085">
<rect width="237.921" height="40.4396" fill="white" transform="translate(131.943 31.7241)"/>
</clipPath>
</defs>
</svg>
