<svg width="121" height="115" viewBox="0 0 121 115" fill="none" xmlns="http://www.w3.org/2000/svg">
<path d="M58.9928 108.48C88.5846 108.48 112.573 84.8709 112.573 55.7481C112.573 26.6253 88.5846 3.0166 58.9928 3.0166C29.401 3.0166 5.41211 26.6253 5.41211 55.7481C5.41211 84.8709 29.401 108.48 58.9928 108.48Z" fill="#BF2026"/>
<path d="M53.736 40.9838H43.983C43.983 40.9838 43.48 42.8413 42.9028 45.1056L40.3798 54.9957C39.8027 57.2638 38.8628 57.26 38.2935 54.9918L35.8172 45.1095C35.2479 42.8375 32.8379 40.98 30.4631 40.98H29.4687C27.0938 40.98 25.7523 42.7991 26.4894 45.0212L33.3605 65.7531C34.0975 67.9751 36.644 69.7943 39.0188 69.7943H39.6857C42.0605 69.7943 44.607 67.9751 45.344 65.7531L47.442 59.4245" fill="white"/>
<path d="M67.4938 59.6433L65.466 65.7531C64.7289 67.9751 62.1825 69.7943 59.8076 69.7943H59.1408C56.7659 69.7943 54.2195 67.9751 53.4825 65.7531L51.3845 59.4245L50.0586 55.3871L54.9916 40.98C55.0423 40.98 55.5298 42.8413 56.0757 45.1171L58.4506 54.9803C59.0004 57.2561 59.9207 57.26 60.4979 54.9918L62.9819 45.2515C63.5591 42.9833 64.0231 41.0951 64.0075 41.0529C63.9958 41.0107 64.0036 40.98 64.027 40.98H73.8072" fill="white"/>
<path d="M52.4452 62.6598L50.0547 55.3871L54.9877 40.98C55.0384 40.98 57.0155 49.024 57.5614 51.2999" fill="url(#paint0_linear_206_19410)"/>
<path d="M75.0685 40.9839C75.1387 40.9839 75.6339 42.8491 76.1643 45.1287L78.4572 54.9765C78.9642 57.1603 79.9469 57.2907 80.6839 55.3488L83.2499 45.1134C83.8192 42.8414 86.2292 40.9839 88.604 40.9839H89.5984C91.9733 40.9839 93.3148 42.803 92.5777 45.0251L91.4897 48.3103L84.0805 72.8339C83.2967 75.0406 82.5557 77.1284 82.3997 77.4584C80.0366 82.5052 77.4511 83.6642 73.1577 83.6642H71.9683C70.5527 83.3725 69.3984 81.6954 69.3984 79.9377C69.3984 78.1799 69.882 76.9864 70.3187 76.806C70.7555 76.6256 71.5588 76.6141 72.8496 76.5566C72.8496 76.5566 75.3414 76.4222 75.3921 73.2752C75.3999 72.7111 74.2457 68.0098 73.4735 65.7992L73.4657 65.7723C73.4657 65.7723 73.4618 65.7608 73.4579 65.757L71.4301 59.6472L70.038 55.7671" fill="white"/>
<path d="M72.954 64.2448L70.0371 55.7632L75.0676 40.98C75.1378 40.98 76.9472 48.4906 77.4776 50.7702" fill="url(#paint1_linear_206_19410)"/>
<defs>
<linearGradient id="paint0_linear_206_19410" x1="56.9453" y1="52.977" x2="51.3239" y2="50.8967" gradientUnits="userSpaceOnUse">
<stop offset="0.4" stop-color="white"/>
<stop offset="1" stop-color="#B3B3B3"/>
</linearGradient>
<linearGradient id="paint1_linear_206_19410" x1="76.877" y1="53.6409" x2="71.1663" y2="51.5291" gradientUnits="userSpaceOnUse">
<stop offset="0.4" stop-color="white"/>
<stop offset="1" stop-color="#B3B3B3"/>
</linearGradient>
</defs>
</svg>
