<svg width="120" height="120" viewBox="0 0 120 120" fill="none" xmlns="http://www.w3.org/2000/svg">
<circle cx="60" cy="60" r="60" fill="#BF2026"/>
<g clip-path="url(#clip0_497_6679)">
<path d="M92.6823 54.4592L79.8805 46.5845C79.7804 46.5237 79.67 46.5006 79.5624 46.4666V43.7507C79.5624 43.0254 78.9474 42.438 78.1872 42.438H73.0815L62.4166 36.0753C61.971 35.8087 61.4044 35.8087 60.9584 36.0753L50.2935 42.438H43.8126C43.0528 42.438 42.4375 43.025 42.4375 43.7507V46.4659C42.3298 46.4999 42.219 46.5233 42.1193 46.5845L29.3175 54.4592C28.9253 54.7014 28.6875 55.1169 28.6875 55.5626V89.6873C28.6875 90.4126 29.3025 91 30.0627 91H91.9372C92.697 91 93.3123 90.413 93.3123 89.6873V55.563C93.3123 55.1169 93.0745 54.7017 92.6823 54.4592ZM61.6877 38.7365L67.8931 42.438H55.4823L61.6877 38.7365ZM45.1878 45.0629H76.8124V74.594C76.8124 74.5977 76.8148 74.6008 76.8148 74.6049L72.1634 77.3008L60.9706 71.4734C60.5531 71.2581 60.0454 71.2593 59.6307 71.4863L49.4169 77.0576L45.1858 74.6053C45.1858 74.6015 45.1882 74.5985 45.1882 74.5947L45.1878 45.0629ZM31.4378 56.2781L42.4375 49.5127V73.0127L31.4378 66.6372V56.2781ZM31.4378 69.7071L46.688 78.5451L31.4378 86.8637V69.7071ZM34.2087 88.3755L60.3288 74.129L87.6914 88.3755H34.2087ZM90.5624 86.88L74.9533 78.7533L90.5624 69.7067V86.88ZM90.5624 66.6372L79.5624 73.0124V49.5127L90.5624 56.2784V66.6372Z" fill="#EDEDE9"/>
<path d="M50.6877 58.1879H67.1876C67.9474 58.1879 68.5627 57.6009 68.5627 56.8753V49.0005C68.5627 48.2753 67.9478 47.6879 67.1876 47.6879H50.6877C49.9279 47.6879 49.3125 48.2749 49.3125 49.0005V56.8753C49.3125 57.6009 49.9279 58.1879 50.6877 58.1879ZM52.0624 50.3128H65.8124V55.5626H52.0624V50.3128Z" fill="#EDEDE9"/>
<path d="M71.3122 60.8128H49.3125V63.4378H71.3122V60.8128Z" fill="#EDEDE9"/>
<path d="M71.3122 66.0631H49.3125V68.688H71.3122V66.0631Z" fill="#EDEDE9"/>
<path d="M86.4372 43.7507C86.789 43.7507 87.1408 43.6226 87.4095 43.3661L92.2702 38.7263C92.8072 38.2137 92.8072 37.3831 92.2702 36.8705C91.7332 36.3575 90.863 36.3579 90.326 36.8705L85.4653 41.5103C84.9282 42.0229 84.9282 42.8535 85.4653 43.3661C85.7336 43.6226 86.0854 43.7507 86.4372 43.7507Z" fill="#EDEDE9"/>
<path d="M34.5897 43.3661C34.8584 43.6226 35.2102 43.7507 35.562 43.7507C35.9138 43.7507 36.2656 43.6226 36.5343 43.3661C37.0713 42.8535 37.0713 42.0229 36.5343 41.5103L31.6731 36.8705C31.1361 36.3579 30.2659 36.3579 29.7289 36.8705C29.1919 37.3831 29.1919 38.2137 29.7289 38.7263L34.5897 43.3661Z" fill="#EDEDE9"/>
<path d="M74.9277 37.0944C75.0943 37.1586 75.2677 37.1877 75.4378 37.1877C75.9831 37.1877 76.5 36.8761 76.7148 36.3624L79.4648 29.7999C79.7469 29.1271 79.403 28.363 78.6982 28.094C78.0002 27.8262 77.1929 28.1503 76.9111 28.8257L74.1612 35.3882C73.879 36.0613 74.2225 36.8255 74.9277 37.0944Z" fill="#EDEDE9"/>
<path d="M46.6611 36.3627C46.8759 36.8768 47.3928 37.188 47.9381 37.188C48.1086 37.188 48.282 37.1586 48.4482 37.0944C49.153 36.825 49.4969 36.0612 49.2147 35.3885L46.4648 28.826C46.1826 28.1506 45.3773 27.8261 44.6777 28.0943C43.9729 28.3636 43.629 29.1274 43.9111 29.8002L46.6611 36.3627Z" fill="#EDEDE9"/>
</g>
<defs>
<clipPath id="clip0_497_6679">
<rect width="66" height="63" fill="white" transform="translate(28 28)"/>
</clipPath>
</defs>
</svg>
