<svg width="30" height="30" viewBox="0 0 30 30" fill="none" xmlns="http://www.w3.org/2000/svg">
<path d="M29.592 25.6622L23.7498 20.039C23.4861 19.7852 23.1286 19.6442 22.7536 19.6442H21.7985C23.4158 17.6532 24.3768 15.149 24.3768 12.4248C24.3768 5.94432 18.9213 0.693359 12.1884 0.693359C5.45548 0.693359 0 5.94432 0 12.4248C0 18.9053 5.45548 24.1563 12.1884 24.1563C15.0187 24.1563 17.6204 23.2313 19.6889 21.6747V22.594C19.6889 22.955 19.8354 23.299 20.0991 23.5528L25.9414 29.176C26.4922 29.7062 27.3829 29.7062 27.9278 29.176L29.5861 27.5799C30.137 27.0497 30.137 26.1924 29.592 25.6622ZM12.1884 19.6442C8.04551 19.6442 4.68784 16.418 4.68784 12.4248C4.68784 8.43726 8.03965 5.20547 12.1884 5.20547C16.3313 5.20547 19.6889 8.43162 19.6889 12.4248C19.6889 16.4124 16.3371 19.6442 12.1884 19.6442Z" fill="#EDEDE9"/>
</svg>
